<?xml version="1.0" encoding="UTF-8"?>
<svg version="1.1" xmlns="http://www.w3.org/2000/svg" width="500" height="500">
<path d="M0 0 C18.02748094 14.53176749 27.36848148 39.38259978 29.83227539 61.83081055 C31.67716769 85.6908806 30.07310339 110.37315069 14.57421875 129.625 C12.63167756 132.08079099 12.63167756 132.08079099 13 136 C14.09070459 138.25140856 14.09070459 138.25140856 15.5 140.5625 C18.70994625 146.77205414 19.27936611 152.47056719 17.37109375 159.2265625 C14.57841173 165.71359966 9.29939174 170.41904146 3 173.4375 C-4.88865447 174.91662271 -10.99284304 173.97893837 -18 170 C-23.82657537 165.17505813 -26.58113543 158.90940264 -27.375 151.5 C-26.50495205 143.37955245 -23.18706457 137.39353324 -17 132 C-11.18110909 128.45652061 -4.44829202 128.04329014 2.125 129.45703125 C3.76622181 129.91697043 5.38648166 130.45071716 7 131 C22.39105591 115.51787275 25.29161694 94.6615319 25.31689453 73.73730469 C25.05819588 49.75178748 18.07864131 25.92579759 1.25 8.1875 C-8.88064779 -1.66174091 -19.91379348 -5.28026682 -34 -6 C-43.45398938 -5.56054161 -52.79280894 -2.78651559 -59.4375 4.25 C-64.53403353 10.93468845 -66.07235942 18.74532634 -65 27 C-62.30859187 38.87808122 -54.54166673 48.84989617 -47.13037109 58.22802734 C-31.6459544 77.86603721 -24.81777293 97.84106514 -27 123 C-28.89580144 138.70947966 -35.67274145 153.07447525 -46 165 C-46.63679688 165.825 -47.27359375 166.65 -47.9296875 167.5 C-59.29160001 181.2200453 -78.51791349 189.82831223 -96 192 C-118.52163757 193.44800133 -139.56630058 189.38724751 -157.29296875 174.609375 C-159.44927475 172.57642747 -161.30571312 170.43093334 -163 168 C-161.21875 167.33984375 -161.21875 167.33984375 -159 167 C-157.28125 168.00390625 -157.28125 168.00390625 -155.5 169.5625 C-140.95112654 181.13180712 -122.2416821 185.04238183 -104 184 C-90.8182952 182.43487185 -90.8182952 182.43487185 -79 177 C-78.505 174.03 -78.505 174.03 -78 171 C-94.83 171 -111.66 171 -129 171 C-129 158.79 -129 146.58 -129 134 C-112.17 134 -95.34 134 -78 134 C-78 118.16 -78 102.32 -78 86 C-66.12 86 -54.24 86 -42 86 C-42 101.84 -42 117.68 -42 134 C-41.01 133.67 -40.02 133.34 -39 133 C-36.56731194 127.08461749 -35.38551169 120.36678404 -35 114 C-34.94714844 113.14277344 -34.89429688 112.28554687 -34.83984375 111.40234375 C-34.21027332 91.06448158 -41.38720863 73.54379963 -53.875 57.75 C-62.29012361 47.05036374 -70.98086487 34.31925234 -70.28125 20.09375 C-69.02878152 10.76981799 -66.25734087 3.43147506 -58.9609375 -2.71875 C-41.4746405 -15.32371321 -16.84602601 -11.95599901 0 0 Z M-18.8125 141.0625 C-22.40814467 145.89093713 -22.52978952 150.18231129 -22 156 C-20.186034 161.44189799 -16.61737362 164.7783325 -12 168 C-6.52421337 169.82526221 -1.09259653 169.80127023 4.25 167.5 C9.61682979 164.4791497 12.06709686 159.74040297 14 154.0625 C14 148.49108046 12.13570522 143.80146345 9.1875 139.125 C4.96823923 135.02628954 1.30053757 133.79861415 -4.5 133.5625 C-11.07005664 133.76725786 -14.55608333 136.22730713 -18.8125 141.0625 Z " fill="#078588" transform="translate(316,118)"/>
<path d="M0 0 C0.99 0 1.98 0 3 0 C1 5 1 5 -0.046875 7.28125 C-2.02367235 12.91998342 -2.06348171 19.80955487 -0.171875 25.484375 C0.7947845 27.40326625 1.84814817 29.18814548 3 31 C3.99 32.98 3.99 32.98 5 35 C-2.26 35 -9.52 35 -17 35 C-17 50.84 -17 66.68 -17 83 C-17.99 83 -18.98 83 -20 83 C-20 84.98 -20 86.96 -20 89 C-23.96 89 -27.92 89 -32 89 C-32 89.66 -32 90.32 -32 91 C-27.05 91 -22.1 91 -17 91 C-16.36191406 89.56785156 -15.72382813 88.13570313 -15.06640625 86.66015625 C-14.23189079 84.79421718 -13.39724885 82.92833467 -12.5625 81.0625 C-12.14162109 80.11697266 -11.72074219 79.17144531 -11.28710938 78.19726562 C-10.68286133 76.84858398 -10.68286133 76.84858398 -10.06640625 75.47265625 C-9.69459229 74.64000244 -9.32277832 73.80734863 -8.93969727 72.94946289 C-8 71 -8 71 -7 70 C-4.36 70 -1.72 70 1 70 C4.63 77.92 8.26 85.84 12 94 C12.33 86.08 12.66 78.16 13 70 C15.97 70 18.94 70 22 70 C22 76.93 22 83.86 22 91 C26.29 91 30.58 91 35 91 C35 93.97 35 96.94 35 100 C24.77 100 14.54 100 4 100 C3.34 98.02 2.68 96.04 2 94 C-2.95 94.495 -2.95 94.495 -8 95 C-8.66 96.65 -9.32 98.3 -10 100 C-20.23 100 -30.46 100 -41 100 C-41 94.39 -41 88.78 -41 83 C-41.99 83 -42.98 83 -44 83 C-44 88.61 -44 94.22 -44 100 C-46.97 100 -49.94 100 -53 100 C-53 96.37 -53 92.74 -53 89 C-55.97 89 -58.94 89 -62 89 C-62 92.63 -62 96.26 -62 100 C-64.97 100 -67.94 100 -71 100 C-71 90.1 -71 80.2 -71 70 C-68.03 70 -65.06 70 -62 70 C-61.67 73.3 -61.34 76.6 -61 80 C-60.05125 79.979375 -59.1025 79.95875 -58.125 79.9375 C-55 80 -55 80 -53 81 C-53 77.37 -53 73.74 -53 70 C-52.34 70 -51.68 70 -51 70 C-51 65.38 -51 60.76 -51 56 C-49.77925781 55.40574219 -48.55851562 54.81148438 -47.30078125 54.19921875 C-22.57659428 41.87868063 -9.24723726 26.20050558 0 0 Z M-4 83 C-4.33 83.99 -4.66 84.98 -5 86 C-4.01 86 -3.02 86 -2 86 C-2.33 85.01 -2.66 84.02 -3 83 C-3.33 83 -3.66 83 -4 83 Z " fill="#08686B" transform="translate(290,253)"/>
<path d="M0 0 C2.89120193 -0.26951882 5.17133079 -0.46354356 8 0 C10.75 2.40625 10.75 2.40625 13 5.5 C13.763125 6.5209375 14.52625 7.541875 15.3125 8.59375 C15.869375 9.3878125 16.42625 10.181875 17 11 C17.33 7.37 17.66 3.74 18 0 C21.3 0 24.6 0 28 0 C28.33 7.59 28.66 15.18 29 23 C32.3 15.41 35.6 7.82 39 0 C41.97 0 44.94 0 48 0 C52.95 10.89 52.95 10.89 58 22 C58.33 14.74 58.66 7.48 59 0 C61.64 0 64.28 0 67 0 C69.03433406 2.28548641 70.16053012 3.85948766 71.5 6.5 C71.84546875 7.12003906 72.1909375 7.74007813 72.546875 8.37890625 C73.39181964 9.90450073 74.19971488 11.45051179 75 13 C78.44453613 9.95951503 80.03272243 6.16261659 82.01171875 2.08203125 C82.66785156 1.39496094 83.32398438 0.70789063 84 0 C86.64 0 89.28 0 92 0 C92 9.9 92 19.8 92 30 C89.03 30 86.06 30 83 30 C82.505 25.545 82.505 25.545 82 21 C81.443125 21.99 80.88625 22.98 80.3125 24 C78 27 78 27 75.5 27.75 C71.79403773 26.63821132 70.83780804 24.26721429 69 21 C68.67 23.97 68.34 26.94 68 30 C65.20775927 30.08071788 62.41783434 30.14035408 59.625 30.1875 C58.8309375 30.21263672 58.036875 30.23777344 57.21875 30.26367188 C55.14413852 30.29004405 53.06899135 30.15486462 51 30 C49 27 49 27 49 24 C45.37 24 41.74 24 38 24 C37.505 26.475 37.505 26.475 37 29 C34.67382034 31.32617966 29.49410879 30.71724664 26.30664062 30.82226562 C22.04626149 30.71165596 20.37387851 30.29948431 16.9375 27.546875 C14.73028487 24.78785608 12.78179786 22.04885411 11 19 C10.67 22.63 10.34 26.26 10 30 C3.06640625 30.09765625 3.06640625 30.09765625 1 30 C0 29 0 29 -0.11352539 26.22436523 C-0.10828857 25.01466064 -0.10305176 23.80495605 -0.09765625 22.55859375 C-0.09443359 21.25341797 -0.09121094 19.94824219 -0.08789062 18.60351562 C-0.07953401 17.2148431 -0.07106905 15.82617123 -0.0625 14.4375 C-0.05748666 13.04492344 -0.05292347 11.65234519 -0.04882812 10.25976562 C-0.03699434 6.8398013 -0.0205088 3.41992156 0 0 Z M43 12 C42.67 13.32 42.34 14.64 42 16 C42.99 15.67 43.98 15.34 45 15 C44.34 14.01 43.68 13.02 43 12 Z " fill="#0A696B" transform="translate(124,323)"/>
<path d="M0 0 C18.02748094 14.53176749 27.36848148 39.38259978 29.83227539 61.83081055 C31.67716769 85.6908806 30.07310339 110.37315069 14.57421875 129.625 C12.63167756 132.08079099 12.63167756 132.08079099 13 136 C14.09070459 138.25140856 14.09070459 138.25140856 15.5 140.5625 C18.70994625 146.77205414 19.27936611 152.47056719 17.37109375 159.2265625 C14.57841173 165.71359966 9.29939174 170.41904146 3 173.4375 C-4.88865447 174.91662271 -10.99284304 173.97893837 -18 170 C-23.82657537 165.17505813 -26.58113543 158.90940264 -27.375 151.5 C-26.50495205 143.37955245 -23.18706457 137.39353324 -17 132 C-11.18110909 128.45652061 -4.44829202 128.04329014 2.125 129.45703125 C3.76622181 129.91697043 5.38648166 130.45071716 7 131 C22.39105591 115.51787275 25.29161694 94.6615319 25.31689453 73.73730469 C25.05819588 49.75178748 18.07864131 25.92579759 1.25 8.1875 C-8.88064779 -1.66174091 -19.91379348 -5.28026682 -34 -6 C-43.45398938 -5.56054161 -52.79280894 -2.78651559 -59.4375 4.25 C-64.53403353 10.93468845 -66.07235942 18.74532634 -65 27 C-61.89711578 40.69406235 -52.03223067 52.27224512 -43.51782227 63.05126953 C-35 73.90489625 -35 73.90489625 -35 78 C-36.32 78 -37.64 78 -39 78 C-39.33 78.66 -39.66 79.32 -40 80 C-40.4846875 79.03320312 -40.969375 78.06640625 -41.46875 77.0703125 C-45.08461848 69.99626278 -48.77370063 63.6878815 -53.91796875 57.58984375 C-62.95934531 46.34325339 -71.37007989 32.96939141 -70 18 C-68.33472135 8.31880378 -64.77659439 1.47345497 -56.75 -4.3125 C-39.22406422 -14.94393542 -16.18201243 -11.48473382 0 0 Z M-18.8125 141.0625 C-22.40814467 145.89093713 -22.52978952 150.18231129 -22 156 C-20.186034 161.44189799 -16.61737362 164.7783325 -12 168 C-6.52421337 169.82526221 -1.09259653 169.80127023 4.25 167.5 C9.61682979 164.4791497 12.06709686 159.74040297 14 154.0625 C14 148.49108046 12.13570522 143.80146345 9.1875 139.125 C4.96823923 135.02628954 1.30053757 133.79861415 -4.5 133.5625 C-11.07005664 133.76725786 -14.55608333 136.22730713 -18.8125 141.0625 Z " fill="#147E81" transform="translate(316,118)"/>
<path d="M0 0 C11.88 0 23.76 0 36 0 C36 3.3 36 6.6 36 10 C38.31 10 40.62 10 43 10 C43.33 6.7 43.66 3.4 44 0 C50.93359375 -0.09765625 50.93359375 -0.09765625 53 0 C54.83034055 1.83034055 54.13042797 4.73211992 54.1328125 7.1875 C54.13474609 9.07082031 54.13474609 9.07082031 54.13671875 10.9921875 C54.13462402 11.64928711 54.1325293 12.30638672 54.13037109 12.98339844 C54.12502234 14.99161335 54.13031691 16.99960459 54.13671875 19.0078125 C54.13542969 20.26335937 54.13414062 21.51890625 54.1328125 22.8125 C54.13168457 23.97394531 54.13055664 25.13539063 54.12939453 26.33203125 C54 29 54 29 53 30 C49.99668982 30.14193337 47.00782866 30.04236378 44 30 C44 26.37 44 22.74 44 19 C41.36 19 38.72 19 36 19 C36.01160156 19.71027344 36.02320313 20.42054688 36.03515625 21.15234375 C36.04417969 22.07144531 36.05320312 22.99054688 36.0625 23.9375 C36.07410156 24.85402344 36.08570313 25.77054687 36.09765625 26.71484375 C36 29 36 29 35 30 C32.03 30 29.06 30 26 30 C26 23.07 26 16.14 26 9 C23.36 9 20.72 9 18 9 C18 15.93 18 22.86 18 30 C14.7 30 11.4 30 8 30 C8 23.07 8 16.14 8 9 C5.69 9 3.38 9 1 9 C0.67 8.67 0.34 8.34 0 8 C0 5.36 0 2.72 0 0 Z " fill="#0A686C" transform="translate(322,323)"/>
<path d="M0 0 C4.03843343 2.60254599 6.29289779 5.25369336 7.8125 9.8125 C8.31421564 15.93343081 7.90083623 18.9292095 3.8125 23.8125 C0.50990076 26.71478418 -2.06907448 27.72809053 -6.5 28.0625 C-11.8250112 27.70148229 -14.87891877 26.22718242 -18.5 22.3125 C-21.32862473 18.12194484 -21.60246987 14.79213845 -21.1875 9.8125 C-19.47733075 4.8777345 -16.71337567 1.78205802 -12.046875 -0.53125 C-7.68170918 -2.07189676 -4.25176331 -1.58399025 0 0 Z " fill="#06686A" transform="translate(318.1875,256.1875)"/>
<path d="M0 0 C16.83 0 33.66 0 51 0 C51 0.33 51 0.66 51 1 C35.16 1.33 19.32 1.66 3 2 C2.67 12.89 2.34 23.78 2 35 C5.52558594 34.98839844 9.05117187 34.97679687 12.68359375 34.96484375 C16.08243723 34.95705437 19.48127974 34.95097693 22.88012695 34.94506836 C25.24992312 34.94002659 27.61971615 34.93319335 29.98950195 34.92456055 C33.38754039 34.9124881 36.78553785 34.90677029 40.18359375 34.90234375 C41.25024765 34.89718246 42.31690155 34.89202118 43.4158783 34.88670349 C44.88729027 34.88659019 44.88729027 34.88659019 46.38842773 34.88647461 C47.69081642 34.88314369 47.69081642 34.88314369 49.01951599 34.87974548 C51 35 51 35 52 36 C52.23880597 43.52238806 52.23880597 43.52238806 51 46 C49.35 46 47.7 46 46 46 C46.639375 45.62875 47.27875 45.2575 47.9375 44.875 C50.67377267 42.77629227 50.67377267 42.77629227 51 37 C34.17 37 17.34 37 0 37 C0 24.79 0 12.58 0 0 Z " fill="#1C7E82" transform="translate(187,252)"/>
<path d="M0 0 C0.33 1.98 0.66 3.96 1 6 C1.66 6 2.32 6 3 6 C4.4606285 8.64738916 5 9.89448334 5 13 C5.66 13 6.32 13 7 13 C7.103125 14.03125 7.20625 15.0625 7.3125 16.125 C7.99127797 19.95083945 9.11158795 22.63370025 11 26 C9.02 26 7.04 26 5 26 C4.34 24.02 3.68 22.04 3 20 C-0.96 20.33 -4.92 20.66 -9 21 C-9.33 19.68 -9.66 18.36 -10 17 C-6.535 16.505 -6.535 16.505 -3 16 C-3 14.68 -3 13.36 -3 12 C-2.34 11.34 -1.68 10.68 -1 10 C-2.80412643 6.73539027 -3.83394693 5.11070205 -7 3 C-7 2.01 -7 1.02 -7 0 C-3.98968256 -0.93423645 -3.13349732 -1.04449911 0 0 Z " fill="#05686B" transform="translate(290,325)"/>
<path d="M0 0 C2.47193291 2.96631949 4.25618453 5.51236907 6 9 C-1.26 9 -8.52 9 -16 9 C-16 24.84 -16 40.68 -16 57 C-16.99 56.67 -17.98 56.34 -19 56 C-18.34 56 -17.68 56 -17 56 C-17.06566162 55.3201001 -17.13132324 54.6402002 -17.19897461 53.93969727 C-17.98341092 45.27776283 -18.31231429 36.62660305 -18.5625 27.9375 C-18.6058425 26.52408001 -18.64946082 25.11066845 -18.69335938 23.69726562 C-19.10865673 10.1188433 -19.10865673 10.1188433 -17 7.8125 C-16.34 7.214375 -15.68 6.61625 -15 6 C-15 6.66 -15 7.32 -15 8 C-10.38 7.67 -5.76 7.34 -1 7 C0.21081851 3.89459074 0.21081851 3.89459074 0 0 Z " fill="#186363" transform="translate(289,279)"/>
<path d="M0 0 C0.33 0 0.66 0 1 0 C1.204437 3.67986596 0.74565111 5.78360346 -1 9 C-0.28714844 8.9278125 0.42570313 8.855625 1.16015625 8.78125 C12.31088544 7.70069482 12.31088544 7.70069482 17 8 C19 10 19 10 19 13 C19.66 13.33 20.32 13.66 21 14 C21.33 13.34 21.66 12.68 22 12 C22 12.66 22 13.32 22 14 C22.90492188 13.96519531 22.90492188 13.96519531 23.828125 13.9296875 C25.02695313 13.90261719 25.02695313 13.90261719 26.25 13.875 C27.03890625 13.85179687 27.8278125 13.82859375 28.640625 13.8046875 C31.20731941 14.0171622 32.7916067 14.71345895 35 16 C32.20775927 16.08071788 29.41783434 16.14035408 26.625 16.1875 C25.8309375 16.21263672 25.036875 16.23777344 24.21875 16.26367188 C22.14413852 16.29004405 20.06899135 16.15486462 18 16 C16 13 16 13 16 10 C12.37 10 8.74 10 5 10 C4.67 11.65 4.34 13.3 4 15 C3 16 3 16 -0.59765625 16.09765625 C-2.08596867 16.0909822 -3.57426432 16.07902183 -5.0625 16.0625 C-5.82111328 16.05798828 -6.57972656 16.05347656 -7.36132812 16.04882812 C-9.24091871 16.0370068 -11.12046899 16.01907078 -13 16 C-13 15.67 -13 15.34 -13 15 C-6.565 14.505 -6.565 14.505 0 14 C-0.33 13.67 -0.66 13.34 -1 13 C-1.99 13.495 -1.99 13.495 -3 14 C-4.07010304 11.23556715 -4.16283213 9.46148633 -3.17578125 6.6640625 C-2.16488321 4.41525773 -1.11596524 2.19840363 0 0 Z " fill="#1C6767" transform="translate(157,337)"/>
<path d="M0 0 C2.64 0 5.28 0 8 0 C8 9.9 8 19.8 8 30 C5.03 30 2.06 30 -1 30 C-1.33 27.03 -1.66 24.06 -2 21 C-2.99 21.99 -3.98 22.98 -5 24 C-7.1875 23.6875 -7.1875 23.6875 -9 23 C-7.63016497 19.83884224 -7.0109362 19.0072908 -4 17 C-4.33 16.34 -4.66 15.68 -5 15 C-3.68 15 -2.36 15 -1 15 C-1 14.34 -1 13.68 -1 13 C-0.34 13 0.32 13 1 13 C1 17.95 1 22.9 1 28 C2.98 28 4.96 28 7 28 C7 19.42 7 10.84 7 2 C4.69 2 2.38 2 0 2 C0 1.34 0 0.68 0 0 Z " fill="#18686A" transform="translate(208,323)"/>
<path d="M0 0 C2.64 0 5.28 0 8 0 C8.66 1.32 9.32 2.64 10 4 C7.69 3.34 5.38 2.68 3 2 C3 10.58 3 19.16 3 28 C4.98 28.33 6.96 28.66 9 29 C9 25.7 9 22.4 9 19 C9.33 19 9.66 19 10 19 C10 22.63 10 26.26 10 30 C3.06640625 30.09765625 3.06640625 30.09765625 1 30 C0 29 0 29 -0.11352539 26.22436523 C-0.10828857 25.01466064 -0.10305176 23.80495605 -0.09765625 22.55859375 C-0.09443359 21.25341797 -0.09121094 19.94824219 -0.08789062 18.60351562 C-0.07953401 17.2148431 -0.07106905 15.82617123 -0.0625 14.4375 C-0.05748666 13.04492344 -0.05292347 11.65234519 -0.04882812 10.25976562 C-0.03699434 6.8398013 -0.0205088 3.41992156 0 0 Z " fill="#1E6D70" transform="translate(124,323)"/>
<path d="M0 0 C2.97 0 5.94 0 9 0 C9.33 4.29 9.66 8.58 10 13 C7 10 7 10 6.8125 6.3125 C6.874375 5.219375 6.93625 4.12625 7 3 C5.35 2.67 3.7 2.34 2 2 C2 10.58 2 19.16 2 28 C3.98 28 5.96 28 8 28 C8 25.03 8 22.06 8 19 C8.33 19 8.66 19 9 19 C9 22.63 9 26.26 9 30 C6.03 30 3.06 30 0 30 C0 20.1 0 10.2 0 0 Z " fill="#206869" transform="translate(219,323)"/>
<path d="M0 0 C-0.33 0.99 -0.66 1.98 -1 3 C-3.97 2.505 -3.97 2.505 -7 2 C-7 3.65 -7 5.3 -7 7 C-5.02 6.67 -3.04 6.34 -1 6 C-1 7.32 -1 8.64 -1 10 C-6.28301887 11.32075472 -6.28301887 11.32075472 -9.375 9.9375 C-11 8 -11 8 -11.375 5 C-11 2 -11 2 -9 -1 C-5.49594785 -2.570782 -3.35616605 -1.58485619 0 0 Z " fill="#0A5C60" transform="translate(207,379)"/>
<path d="M0 0 C0.99 0.495 0.99 0.495 2 1 C2 5.62 2 10.24 2 15 C3.25554687 14.98839844 4.51109375 14.97679687 5.8046875 14.96484375 C14.27321259 14.91074797 22.58656141 14.89659822 31 16 C31 16.33 31 16.66 31 17 C20.77 17 10.54 17 0 17 C0 11.39 0 5.78 0 0 Z " fill="#1F6268" transform="translate(249,336)"/>
<path d="M0 0 C4.03843343 2.60254599 6.29289779 5.25369336 7.8125 9.8125 C8.31296642 17.69484608 8.31296642 17.69484608 4.8125 21.8125 C4.91949219 21.08804687 5.02648437 20.36359375 5.13671875 19.6171875 C6.12805148 11.79793556 6.12805148 11.79793556 2.8125 4.8125 C0.91779121 2.62629754 -0.37423786 1.92424594 -3.234375 1.53125 C-9.56807529 1.27620167 -13.81867125 2.63068404 -18.5625 7 C-19.366875 7.8971875 -19.366875 7.8971875 -20.1875 8.8125 C-18.83594718 4.38923622 -16.98859562 2.40837018 -13.1875 -0.1875 C-8.48227445 -1.75590852 -4.66101184 -1.73645539 0 0 Z " fill="#146161" transform="translate(318.1875,256.1875)"/>
<path d="M0 0 C1.27875 -0.061875 2.5575 -0.12375 3.875 -0.1875 C4.95394531 -0.23970703 4.95394531 -0.23970703 6.0546875 -0.29296875 C6.69664062 -0.19628906 7.33859375 -0.09960938 8 0 C10.29013653 3.4352048 10.17842973 4.985331 10 9 C8.68 9 7.36 9 6 9 C6 7.02 6 5.04 6 3 C5.34 3 4.68 3 4 3 C4 4.98 4 6.96 4 9 C2.68 9 1.36 9 0 9 C0 6.03 0 3.06 0 0 Z " fill="#0F5C62" transform="translate(230,380)"/>
<path d="M0 0 C1.27875 -0.061875 2.5575 -0.12375 3.875 -0.1875 C4.95394531 -0.23970703 4.95394531 -0.23970703 6.0546875 -0.29296875 C6.69664062 -0.19628906 7.33859375 -0.09960938 8 0 C10.29013653 3.4352048 10.17842973 4.985331 10 9 C8.68 9 7.36 9 6 9 C6 7.02 6 5.04 6 3 C5.34 3 4.68 3 4 3 C4 4.98 4 6.96 4 9 C2.68 9 1.36 9 0 9 C0 6.03 0 3.06 0 0 Z " fill="#0E5E63" transform="translate(247,380)"/>
<path d="M0 0 C2 2 2 2 2.3125 5 C2.1578125 6.485 2.1578125 6.485 2 8 C-1 10 -1 10 -3.5625 9.75 C-6 9 -6 9 -8 7 C-7.75 3.9375 -7.75 3.9375 -7 1 C-4.48718205 -0.25640898 -2.78302919 -0.20872719 0 0 Z M-4 3 C-3.67 4.32 -3.34 5.64 -3 7 C-2.34 6.67 -1.68 6.34 -1 6 C-1.33 5.01 -1.66 4.02 -2 3 C-2.66 3 -3.32 3 -4 3 Z " fill="#0E5E63" transform="translate(221,380)"/>
<path d="M0 0 C2.5 0.25 2.5 0.25 4.5 2.25 C4.8125 5.25 4.8125 5.25 4.5 8.25 C1.5 10.25 1.5 10.25 -1.125 9.9375 C-3.5 9.25 -3.5 9.25 -4.5 8.25 C-4.6875 5.3125 -4.6875 5.3125 -4.5 2.25 C-2.5 0.25 -2.5 0.25 0 0 Z " fill="#095E68" transform="translate(268.5,379.75)"/>
<path d="M0 0 C0.66 0.99 1.32 1.98 2 3 C-1.75 4.125 -1.75 4.125 -4 3 C-2.36526484 6.12474627 -2.36526484 6.12474627 0.125 6.6875 C0.74375 6.790625 1.3625 6.89375 2 7 C0.8125 8.5625 0.8125 8.5625 -1 10 C-4.34192692 9.75546876 -5.60543557 9.39456443 -8 7 C-7.75 3.9375 -7.75 3.9375 -7 1 C-4.46578263 -0.26710868 -2.80561762 -0.28056176 0 0 Z " fill="#0D5F64" transform="translate(287,380)"/>
<path d="M0 0 C0.66 0.33 1.32 0.66 2 1 C1.67 1.99 1.34 2.98 1 4 C-0.65 3.67 -2.3 3.34 -4 3 C-4 8.28 -4 13.56 -4 19 C-4.66 19 -5.32 19 -6 19 C-6 21.64 -6 24.28 -6 27 C-6.66 27.33 -7.32 27.66 -8 28 C-8 24.37 -8 20.74 -8 17 C-7.34 17 -6.68 17 -6 17 C-6 12.38 -6 7.76 -6 3 C-4.02 2.01 -2.04 1.02 0 0 Z " fill="#166262" transform="translate(245,306)"/>
<path d="M0 0 C3.63 0 7.26 0 11 0 C11 0.99 11 1.98 11 3 C9.68 3 8.36 3 7 3 C7 5.64 7 8.28 7 11 C6.01 11 5.02 11 4 11 C4 8.36 4 5.72 4 3 C2.68 3 1.36 3 0 3 C0 2.01 0 1.02 0 0 Z " fill="#156161" transform="translate(294,378)"/>
<path d="M0 0 C0 3.16785869 -0.55555175 4.28103859 -2 7 C-2.33 7.99 -2.66 8.98 -3 10 C-7.455 10.495 -7.455 10.495 -12 11 C-12.33 12.32 -12.66 13.64 -13 15 C-14.32 15 -15.64 15 -17 15 C-17.66 14.34 -18.32 13.68 -19 13 C-18.29875 12.64808594 -17.5975 12.29617188 -16.875 11.93359375 C-10.48781856 8.6098295 -5.17312459 5.01007482 0 0 Z " fill="#0E6064" transform="translate(266,292)"/>
<path d="M0 0 C1.9453125 -0.29296875 1.9453125 -0.29296875 4.125 -0.1875 C5.40375 -0.125625 6.6825 -0.06375 8 0 C9.00460531 2.12282669 10.00355602 4.24833021 11 6.375 C11.556875 7.55835938 12.11375 8.74171875 12.6875 9.9609375 C14 13 14 13 14 15 C13.34 15 12.68 15 12 15 C11.34 12.69 10.68 10.38 10 8 C9.34 8 8.68 8 8 8 C7.34 6.02 6.68 4.04 6 2 C4.02 2 2.04 2 0 2 C-0.144375 2.78375 -0.28875 3.5675 -0.4375 4.375 C-1 7 -1 7 -2 9 C-2.66 9 -3.32 9 -4 9 C-2.94124926 5.59687262 -1.99097846 2.98646769 0 0 Z " fill="#1E6769" transform="translate(283,323)"/>
<path d="M0 0 C0.33 0 0.66 0 1 0 C1 5.61 1 11.22 1 17 C-1.97 17 -4.94 17 -8 17 C-8.33 13.04 -8.66 9.08 -9 5 C-8.01 4.67 -7.02 4.34 -6 4 C-5.67 7.63 -5.34 11.26 -5 15 C-3.68 15 -2.36 15 -1 15 C-0.67 10.05 -0.34 5.1 0 0 Z " fill="#226B6F" transform="translate(245,336)"/>
<path d="M0 0 C8.91 0 17.82 0 27 0 C27 0.33 27 0.66 27 1 C18.42 1 9.84 1 1 1 C1 2.98 1 4.96 1 7 C4.465 6.505 4.465 6.505 8 6 C8 6.66 8 7.32 8 8 C5.6739143 8.38063221 3.33944736 8.71269945 1 9 C0.67 8.67 0.34 8.34 0 8 C0 5.36 0 2.72 0 0 Z " fill="#266465" transform="translate(322,323)"/>
<path d="M0 0 C0.33 0 0.66 0 1 0 C1 7.26 1 14.52 1 22 C-2.3 22 -5.6 22 -9 22 C-9 18.37 -9 14.74 -9 11 C-8.67 11 -8.34 11 -8 11 C-7.67 13.97 -7.34 16.94 -7 20 C-4.69 20.33 -2.38 20.66 0 21 C-0.03552979 20.39937744 -0.07105957 19.79875488 -0.10766602 19.17993164 C-0.26468681 16.47440314 -0.41369797 13.76849243 -0.5625 11.0625 C-0.61857422 10.11697266 -0.67464844 9.17144531 -0.73242188 8.19726562 C-0.78076172 7.29814453 -0.82910156 6.39902344 -0.87890625 5.47265625 C-0.9260376 4.64000244 -0.97316895 3.80734863 -1.02172852 2.94946289 C-1 1 -1 1 0 0 Z " fill="#23656B" transform="translate(339,331)"/>
<path d="M0 0 C2.64 0.66 5.28 1.32 8 2 C4.85488067 4.57672427 1.67836053 6.17392493 -2.0625 7.75 C-3.10535156 8.19859375 -4.14820313 8.6471875 -5.22265625 9.109375 C-8 10 -8 10 -11 9 C-10.34 9 -9.68 9 -9 9 C-8.67 8.01 -8.34 7.02 -8 6 C-6.68 6.33 -5.36 6.66 -4 7 C-4 6.34 -4 5.68 -4 5 C-2.68 4.67 -1.36 4.34 0 4 C0 2.68 0 1.36 0 0 Z " fill="#147B7D" transform="translate(242,297)"/>
<path d="M0 0 C5.28 0 10.56 0 16 0 C16.33 0.99 16.66 1.98 17 3 C10.88514973 3.09706112 5.06696699 2.77040851 -1 2 C-0.67 1.34 -0.34 0.68 0 0 Z " fill="#088287" transform="translate(275,109)"/>
<path d="M0 0 C0.99 0 1.98 0 3 0 C3 5.94 3 11.88 3 18 C-0.65988816 14.34011184 -0.05470803 9.00261034 -0.0625 4.0625 C-0.04667422 2.70826555 -0.02763357 1.35404497 0 0 Z " fill="#157275" transform="translate(330,333)"/>
<path d="M0 0 C0.99 0 1.98 0 3 0 C1 5 1 5 -0.03125 7.28125 C-1.12703283 10.3565115 -1.41054294 13.0599012 -1.625 16.3125 C-1.69976562 17.38113281 -1.77453125 18.44976562 -1.8515625 19.55078125 C-1.90054687 20.35902344 -1.94953125 21.16726563 -2 22 C-2.33 22 -2.66 22 -3 22 C-4.2118312 14.32020226 -4.00881128 8.23902119 -1 1 C-0.67 0.67 -0.34 0.34 0 0 Z " fill="#1E686B" transform="translate(290,253)"/>
<path d="M0 0 C0.99 0 1.98 0 3 0 C3 0.66 3 1.32 3 2 C3.66 2.33 4.32 2.66 5 3 C4.67 4.98 4.34 6.96 4 9 C2.68 9 1.36 9 0 9 C0 6.03 0 3.06 0 0 Z " fill="#076569" transform="translate(247,380)"/>
<path d="M0 0 C0.8971875 0.5259375 0.8971875 0.5259375 1.8125 1.0625 C0.8225 1.0625 -0.1675 1.0625 -1.1875 1.0625 C-1.5175 3.0425 -1.8475 5.0225 -2.1875 7.0625 C-3.1775 7.3925 -4.1675 7.7225 -5.1875 8.0625 C-6.1775 7.4025 -7.1675 6.7425 -8.1875 6.0625 C-7.1975 6.0625 -6.2075 6.0625 -5.1875 6.0625 C-5.1875 4.0825 -5.1875 2.1025 -5.1875 0.0625 C-2.1875 -0.9375 -2.1875 -0.9375 0 0 Z " fill="#127576" transform="translate(351.1875,323.9375)"/>
<path d="M0 0 C3.63 0.33 7.26 0.66 11 1 C11.33 1.99 11.66 2.98 12 4 C7.45194365 4.17835515 4.1205746 3.99785435 0 2 C0 1.34 0 0.68 0 0 Z " fill="#088586" transform="translate(303,287)"/>
<path d="M0 0 C5.94 1.485 5.94 1.485 12 3 C12 3.33 12 3.66 12 4 C10.02 4.33 8.04 4.66 6 5 C6.33 5.99 6.66 6.98 7 8 C5.35 7.67 3.7 7.34 2 7 C2.33 5.35 2.66 3.7 3 2 C2.01 2 1.02 2 0 2 C0 1.34 0 0.68 0 0 Z " fill="#197B7C" transform="translate(175,297)"/>
<path d="M0 0 C2 2 2 2 2.1953125 4.8203125 C2.16050781 6.45613281 2.16050781 6.45613281 2.125 8.125 C2.10695312 9.22070312 2.08890625 10.31640625 2.0703125 11.4453125 C2.04710937 12.28835937 2.02390625 13.13140625 2 14 C0.48046875 12.85546875 0.48046875 12.85546875 -1 11 C-1.07421875 8.30078125 -1.07421875 8.30078125 -0.6875 5.3125 C-0.56761719 4.31863281 -0.44773438 3.32476562 -0.32421875 2.30078125 C-0.21722656 1.54152344 -0.11023438 0.78226563 0 0 Z " fill="#0C8087" transform="translate(248,133)"/>
<path d="M0 0 C3.03184713 3.41082803 3.03184713 3.41082803 2.875 6.3125 C3.06552207 10.40872458 5.48828275 12.88726469 8 16 C4.18687371 14.77435227 2.60989482 12.41136694 0.75 8.953125 C-0.40498408 5.94535397 -0.25867923 3.16882063 0 0 Z " fill="#175F5E" transform="translate(297,266)"/>
<path d="M0 0 C0.66 0.33 1.32 0.66 2 1 C2.125 8.75 2.125 8.75 1 11 C-0.32 11 -1.64 11 -3 11 C-3 10.34 -3 9.68 -3 9 C-2.34 9 -1.68 9 -1 9 C-1.33 8.01 -1.66 7.02 -2 6 C-1.0625 2.8125 -1.0625 2.8125 0 0 Z " fill="#026869" transform="translate(277,340)"/>
<path d="M0 0 C0.66 0.33 1.32 0.66 2 1 C2 3.31 2 5.62 2 8 C1.01 8 0.02 8 -1 8 C-1.99 8.66 -2.98 9.32 -4 10 C-2.8905928 6.51329166 -1.73662334 3.22515763 0 0 Z " fill="#0C6062" transform="translate(285,266)"/>
<path d="M0 0 C0.80566406 0.04833984 1.61132812 0.09667969 2.44140625 0.14648438 C3.28316406 0.20255859 4.12492187 0.25863281 4.9921875 0.31640625 C6.26642578 0.3947168 6.26642578 0.3947168 7.56640625 0.47460938 C9.66697874 0.60442003 11.76712941 0.74102365 13.8671875 0.87890625 C13.8671875 1.20890625 13.8671875 1.53890625 13.8671875 1.87890625 C12.75859375 1.93949219 11.65 2.00007813 10.5078125 2.0625 C9.0442593 2.14693576 7.58071825 2.23158224 6.1171875 2.31640625 C5.02277344 2.37538086 5.02277344 2.37538086 3.90625 2.43554688 C0.4398902 2.64037723 -2.78614276 2.96410645 -6.1328125 3.87890625 C-6.1328125 2.88890625 -6.1328125 1.89890625 -6.1328125 0.87890625 C-3.77622853 -0.29938574 -2.60708014 -0.16523747 0 0 Z " fill="#006265" transform="translate(330.1328125,324.12109375)"/>
<path d="M0 0 C0.66 0.99 1.32 1.98 2 3 C1.34 3 0.68 3 0 3 C0 5.64 0 8.28 0 11 C-0.99 11.495 -0.99 11.495 -2 12 C-2 8.37 -2 4.74 -2 1 C-1.34 0.67 -0.68 0.34 0 0 Z " fill="#247172" transform="translate(239,322)"/>
<path d="M0 0 C0.33 0 0.66 0 1 0 C1.34615998 5.65394631 0.43425238 9.03006806 -2 14 C-3.08577754 10.74266739 -2.90445241 9.67810011 -2.125 6.4375 C-1.94195312 5.65246094 -1.75890625 4.86742187 -1.5703125 4.05859375 C-1 2 -1 2 0 0 Z " fill="#068386" transform="translate(342,213)"/>
<path d="M0 0 C2.64 0 5.28 0 8 0 C8.66 1.65 9.32 3.3 10 5 C9.01 4.67 8.02 4.34 7 4 C7 3.34 7 2.68 7 2 C5.02 2 3.04 2 1 2 C0.67 2.66 0.34 3.32 0 4 C0 2.68 0 1.36 0 0 Z " fill="#256D6B" transform="translate(183,323)"/>
<path d="M0 0 C-1.1875 1.5625 -1.1875 1.5625 -3 3 C-5.625 2.8125 -5.625 2.8125 -8 2 C-8.33 1.34 -8.66 0.68 -9 0 C-3.375 -1.125 -3.375 -1.125 0 0 Z " fill="#145E60" transform="translate(273,387)"/>
<path d="M0 0 C0.99 0.33 1.98 0.66 3 1 C3 2.98 3 4.96 3 7 C2.01 7 1.02 7 0 7 C-0.38133299 5.0085944 -0.71325582 3.00720923 -1 1 C-0.67 0.67 -0.34 0.34 0 0 Z " fill="#156F74" transform="translate(355,328)"/>
<path d="M0 0 C2.2477975 2.05233685 3.0022242 3.00667261 4 6 C2.68 5.67 1.36 5.34 0 5 C-0.33 5.99 -0.66 6.98 -1 8 C-1.66 6.02 -2.32 4.04 -3 2 C-2.01 2 -1.02 2 0 2 C0 1.34 0 0.68 0 0 Z " fill="#1C7A7D" transform="translate(275,186)"/>
<path d="M0 0 C0.66 0 1.32 0 2 0 C1.05066101 3.35433109 0.10251165 6.69246505 -1 10 C-1.66 10 -2.32 10 -3 10 C-2.39009109 6.44219804 -1.4216319 3.3171411 0 0 Z " fill="#207172" transform="translate(162,325)"/>
<path d="M0 0 C0.33 1.32 0.66 2.64 1 4 C4.465 3.505 4.465 3.505 8 3 C8 3.66 8 4.32 8 5 C5.6739143 5.38063221 3.33944736 5.71269945 1 6 C0 5 0 5 -0.0625 2.4375 C-0.041875 1.633125 -0.02125 0.82875 0 0 Z " fill="#1C6E6D" transform="translate(322,326)"/>
<path d="M0 0 C0.99 0.33 1.98 0.66 3 1 C2.67 1.99 2.34 2.98 2 4 C0.02 4.33 -1.96 4.66 -4 5 C-2.68 3.35 -1.36 1.7 0 0 Z " fill="#0C4E54" transform="translate(204,385)"/>
<path d="M0 0 C0.33 0 0.66 0 1 0 C1 2.64 1 5.28 1 8 C0.01 8 -0.98 8 -2 8 C-2 6.35 -2 4.7 -2 3 C-1.34 3 -0.68 3 0 3 C0 2.01 0 1.02 0 0 Z " fill="#0F656A" transform="translate(300,381)"/>
<path d="M0 0 C0.95465783 2.16967689 1.14401212 3.56328793 0.3984375 5.82421875 C-0.35870385 7.5684743 -1.17609198 9.28627131 -2 11 C-2.66 11 -3.32 11 -4 11 C-2.7874262 7.27566618 -1.49140021 3.62197194 0 0 Z " fill="#196060" transform="translate(278,332)"/>
<path d="M0 0 C2.64 0 5.28 0 8 0 C7.67 1.32 7.34 2.64 7 4 C4.07175348 3.02391783 2.38573379 1.89213369 0 0 Z " fill="#196468" transform="translate(350,323)"/>
<path d="M0 0 C1.65 0 3.3 0 5 0 C5 1.32 5 2.64 5 4 C2.525 3.01 2.525 3.01 0 2 C0 1.34 0 0.68 0 0 Z " fill="#0D5857" transform="translate(250,380)"/>
<path d="M0 0 C0.99 0 1.98 0 3 0 C3 0.66 3 1.32 3 2 C3.66 2.33 4.32 2.66 5 3 C4.67 3.66 4.34 4.32 4 5 C2.68 4.67 1.36 4.34 0 4 C0 2.68 0 1.36 0 0 Z " fill="#146065" transform="translate(247,380)"/>
<path d="M0 0 C1.32 0 2.64 0 4 0 C4.33 1.65 4.66 3.3 5 5 C4.01 5 3.02 5 2 5 C1.34 3.35 0.68 1.7 0 0 Z " fill="#05858C" transform="translate(277,196)"/>
</svg>
